<?xml version="1.0" encoding="UTF-8" standalone="no"?>
<!-- Created with Inkscape (http://www.inkscape.org/) -->

<svg
   xmlns:dc="http://purl.org/dc/elements/1.1/"
   xmlns:cc="http://creativecommons.org/ns#"
   xmlns:rdf="http://www.w3.org/1999/02/22-rdf-syntax-ns#"
   xmlns:svg="http://www.w3.org/2000/svg"
   xmlns="http://www.w3.org/2000/svg"
   xmlns:sodipodi="http://sodipodi.sourceforge.net/DTD/sodipodi-0.dtd"
   xmlns:inkscape="http://www.inkscape.org/namespaces/inkscape"
   width="24"
   height="24"
   id="svg2"
   version="1.1"
   inkscape:version="0.48.4 r9939"
   sodipodi:docname="mouse.svg">
  <defs
     id="defs4" />
  <sodipodi:namedview
     id="base"
     pagecolor="#ffffff"
     bordercolor="#666666"
     borderopacity="1.0"
     inkscape:pageopacity="0.0"
     inkscape:pageshadow="2"
     inkscape:zoom="8"
     inkscape:cx="5.4375"
     inkscape:cy="15.659822"
     inkscape:document-units="px"
     inkscape:current-layer="layer1"
     showgrid="false"
     inkscape:window-width="1600"
     inkscape:window-height="873"
     inkscape:window-x="0"
     inkscape:window-y="27"
     inkscape:window-maximized="0" />
  <metadata
     id="metadata7">
    <rdf:RDF>
      <cc:Work
         rdf:about="">
        <dc:format>image/svg+xml</dc:format>
        <dc:type
           rdf:resource="http://purl.org/dc/dcmitype/StillImage" />
        <dc:title></dc:title>
      </cc:Work>
    </rdf:RDF>
  </metadata>
  <g
     inkscape:label="Layer 1"
     inkscape:groupmode="layer"
     id="layer1"
     transform="translate(0,-1028.3622)">
    <path
       sodipodi:type="arc"
       style="fill:#a05a2c;fill-opacity:1;stroke:#784421;stroke-width:0.93511063;stroke-miterlimit:4;stroke-opacity:1;stroke-dasharray:none"
       id="path2985"
       sodipodi:cx="10.625"
       sodipodi:cy="14.1875"
       sodipodi:rx="7.125"
       sodipodi:ry="5.0625"
       d="m 17.75,14.1875 a 7.125,5.0625 0 1 1 -14.25,0 7.125,5.0625 0 1 1 14.25,0 z"
       transform="matrix(-1.0526316,0,0,1.0864198,21.184413,1024.9486)" />
    <path
       transform="matrix(-0.49122807,0,0,0.69135802,23.2195,1030.5535)"
       d="m 17.75,14.1875 a 7.125,5.0625 0 1 1 -14.25,0 7.125,5.0625 0 1 1 14.25,0 z"
       sodipodi:ry="5.0625"
       sodipodi:rx="7.125"
       sodipodi:cy="14.1875"
       sodipodi:cx="10.625"
       id="path2987"
       style="fill:#a05a2c;fill-opacity:1;stroke:#784421;stroke-width:1.71595907;stroke-miterlimit:4;stroke-opacity:1;stroke-dasharray:none"
       sodipodi:type="arc" />
    <path
       style="fill:none;stroke:#333333;stroke-width:1px;stroke-linecap:butt;stroke-linejoin:miter;stroke-opacity:1"
       d="m 2.5002022,1040.6122 c -3.645833,3.2083 2.583333,4.2917 3.6875,7.75"
       id="path2989"
       inkscape:connector-curvature="0"
       sodipodi:nodetypes="cc" />
    <path
       sodipodi:type="arc"
       style="fill:#000000;fill-opacity:1;stroke:none"
       id="path3010"
       sodipodi:cx="-34.375"
       sodipodi:cy="23.3125"
       sodipodi:rx="3.75"
       sodipodi:ry="2.1875"
       d="m -30.625,23.3125 a 3.75,2.1875 0 1 1 -7.5,0 3.75,2.1875 0 1 1 7.5,0 z"
       transform="matrix(-0.4,0,0,0.45714286,8.7502022,1029.7051)" />
    <path
       sodipodi:type="arc"
       style="fill:#000000;fill-opacity:1;stroke:none"
       id="path3012"
       sodipodi:cx="5.0625"
       sodipodi:cy="11.75"
       sodipodi:rx="0.5625"
       sodipodi:ry="0.625"
       d="m 5.625,11.75 a 0.5625,0.625 0 1 1 -1.125,0 0.5625,0.625 0 1 1 1.125,0 z"
       transform="matrix(-0.88888889,0,0,0.8,24.000202,1029.4622)" />
    <path
       transform="matrix(-0.88888889,0,0,0.8,24.000202,1032.4622)"
       d="m 5.625,11.75 a 0.5625,0.625 0 1 1 -1.125,0 0.5625,0.625 0 1 1 1.125,0 z"
       sodipodi:ry="0.625"
       sodipodi:rx="0.5625"
       sodipodi:cy="11.75"
       sodipodi:cx="5.0625"
       id="path3014"
       style="fill:#000000;fill-opacity:1;stroke:none"
       sodipodi:type="arc" />
    <path
       style="fill:#a05a2c;stroke:#784421;stroke-width:1px;stroke-linecap:butt;stroke-linejoin:miter;stroke-opacity:1"
       d="m 17.625202,1037.7372 c 0,0 0.529184,-5.3235 -3.125,-3.5 -3.654184,1.8235 1.125,5.25 1.125,5.25"
       id="path3016"
       inkscape:connector-curvature="0"
       sodipodi:nodetypes="czc" />
    <path
       sodipodi:nodetypes="czc"
       inkscape:connector-curvature="0"
       id="path3018"
       d="m 17.625202,1042.6067 c 0,0 0.529184,5.3236 -3.125,3.5 -3.654184,-1.8235 1.125,-5.25 1.125,-5.25"
       style="fill:#a05a2c;stroke:#784421;stroke-width:1px;stroke-linecap:butt;stroke-linejoin:miter;stroke-opacity:1" />
  </g>
</svg>
